<?xml version="1.0" encoding="utf-8"?>
<svg version="1.1" id="Layer_1"
xmlns="http://www.w3.org/2000/svg"
xmlns:xlink="http://www.w3.org/1999/xlink"
width="568px" height="400px"
xml:space="preserve">
<g id="PathID_1" transform="matrix(2.35887, 0.0495935, -0.128858, 1.39351, 183.5, 225.25)" opacity="1">
<path style="fill:#3399CC;fill-opacity:1" d="M15 -25.4L14.95 -24.85L14.25 -24.7L13.8 -24.75L13.3 -25.2L13.75 -25.65L14.5 -25.7L15 -25.4M14.8 -26.55L14.3 -25.95L13.65 -25.95L12.9 -26.2L12.15 -26.55L11.4 -27.1L11.25 -27.6L10.35 -27.8L9.8 -28L8.8 -27.85L7.9 -27.85L7 -27.8L5.75 -27.35L4.85 -26.8L3.4 -25.5L3.1 -24.75L2.65 -23.75L2.75 -22.55L3.15 -21.6L3.55 -21L4.85 -20.05L5.6 -19.45L6.5 -18.9L7.15 -18.25L7.95 -17.65L9.6 -16.7L10.45 -15.95L11.05 -15.3L11.6 -14.9L11.75 -14.3L12.6 -13L12.95 -12.15L13.15 -11.25L13.5 -10.3L13.85 -9.35L13.9 -8.05L13.7 -7L13.1 -5.8L12.8 -4.85L12.2 -4.2L11.9 -3.55L11.15 -2.8L10.5 -2.3L9.45 -1.9L8 -1.65L7 -1.45L5.85 -1.65L5.05 -1.7L4.3 -1.85L3.75 -2.15L3.4 -2.15L3.2 -2.45L3.25 -3L3.45 -3.35L3.85 -3.35L3.85 -3L3.95 -2.8L4.3 -2.6L5 -2.3L6.6 -2.2L7.15 -2.35L7.95 -2.3L9 -2.55L9.95 -3L11.15 -3.8L11.35 -4.4L11.85 -5.25L12.15 -6.1L12.55 -6.75L12.6 -7.55L12.85 -8.65L12.65 -9.4L12.45 -10.35L11.9 -11.1L11.65 -12.05L11.2 -12.9L10.9 -13.75L10.3 -14.1L9.8 -14.6L9.1 -15.1L8.5 -15.75L7.35 -16.25L6.7 -16.9L5.95 -17.05L5.25 -17.65L4.3 -18.3L3.8 -18.75L2.9 -19L2 -19.75L1.25 -20.65L0.8 -21.6L0.35 -22.55L0.35 -24.5L0.75 -25.6L1.25 -26.6L1.85 -27.5L2.5 -28.2L3.1 -28.75L3.9 -29.4L4.8 -29.85L5.6 -30.15L6.8 -30.2L7.9 -30.3L9.05 -30.55L10 -31.05L11.05 -31.35L11.5 -31.75L12.5 -31.6L13.05 -31.05L13.35 -30.15L13.75 -29.65L14.25 -29.1L14.6 -28.3L14.7 -27.55L14.8 -26.55" />
</g>
<g id="PathID_2" transform="matrix(2.35887, 0.0495935, -0.128858, 1.39351, 223.9, 226.1)" opacity="1">
<path style="fill:#3399CC;fill-opacity:1" d="M1.25 -11.25L0.95 -11L0.65 -11.1L0.35 -11.35L0.7 -11.75L1.05 -11.6L1.25 -11.25M15.65 -2.05L15.6 -1.35L15.4 0L15.4 0.55L15.25 1.25L15.3 1.95L15.2 2.55L14.95 2.9L14.95 3.6L14.8 4.5L14.55 5.25L14.1 6.15L14 6.6L13.75 6.95L13.5 7.4L13.15 7.9L12.65 8.45L12.5 8.85L12 9.3L11.6 9.75L11.15 10.2L10.7 10.55L10.05 10.8L9.7 11.15L9.05 11.4L8.2 11.6L7.35 11.55L5.3 11.25L4.45 10.95L3.9 10.85L3.3 10.3L3 10.2L2.75 9.85L2.6 9.25L2.55 8.7L2.55 7.75L2.6 6.9L2.75 6.55L2.9 6.3L3.1 6.15L3.3 6.3L3.3 6.6L3.25 7.1L3.4 7.55L3.4 8.2L3.3 8.6L3.5 9.35L3.85 9.65L4.25 9.85L4.7 10.2L5.1 10.25L5.45 10.25L6 10.4L6.6 10.4L7.3 10.5L7.95 10.3L8.5 10.25L9.15 10.4L9.5 10L9.9 9.7L10.35 9.45L10.75 9.15L11.4 8.2L12.15 7.35L12.2 6.8L12.55 6.45L12.75 5.95L13 5.6L13 5.2L13.25 4.45L13.55 3.9L13.7 3.2L13.9 2.3L13.8 1.75L14.05 1.1L14.05 0.2L14.1 -0.55L14.2 -1.35L14.05 -2.25L13.85 -2.95L13.7 -3.4L13.4 -3.8L13.2 -3.95L12.95 -3.8L12.5 -3.4L12.1 -3L11.5 -2.8L11 -2.4L10.55 -2.15L10.05 -2.05L9.8 -1.8L9.15 -1.65L8.4 -1.4L7.6 -1.4L6.75 -1.7L6 -2.05L5.6 -2.1L5.3 -2.5L5 -2.6L4.4 -3.05L3.8 -3.4L3.45 -4.1L3.15 -4.6L2.95 -5.1L2.75 -5.8L2.55 -6.7L2.55 -7.55L2.3 -8.4L2.3 -9.2L2.1 -9.7L2 -10.55L1.8 -11.25L1.35 -11.95L1.2 -12.55L1 -13.2L1.1 -13.65L1.2 -14.05L1.5 -14.55L1.95 -14.9L2.6 -15.15L3.35 -15.05L3.9 -14.9L4.5 -14.45L4.9 -13.9L5.2 -13.25L5.7 -12.2L6 -11.35L6.1 -10.15L6.05 -9.35L6.15 -8.45L6.35 -8.35L6.55 -7.55L6.8 -7.05L6.85 -6.65L7.3 -6.3L7.9 -5.95L8.6 -5.7L9.25 -5.95L9.85 -6.05L10.4 -6.3L10.9 -6.65L11.6 -6.8L12.5 -6.75L12.9 -7.15L13.2 -7.6L13.5 -7.9L13.5 -8.6L13.4 -9.4L13.2 -10.3L13 -11.25L12.85 -12.15L12.85 -12.8L12.5 -14.05L12.1 -14.7L12.1 -15.2L12.3 -15.75L12.65 -16.1L13.25 -16L13.65 -15.75L13.85 -15.3L14.15 -14.85L14.4 -14.45L14.55 -14L14.85 -13.45L15 -12.8L15.15 -12.25L15.3 -11.5L15.15 -10.75L15.15 -10.1L15.3 -9.25L15.25 -8.55L15.3 -7.85L15.4 -7.25L15.45 -6.45L15.4 -5.75L15.45 -4.95L15.6 -4.2L15.4 -3.45L15.55 -2.8L15.65 -2.05" />
</g>
<g id="PathID_3" transform="matrix(2.35887, 0.0495935, -0.128858, 1.39351, 267.4, 227)" opacity="1">
<path style="fill:#3399CC;fill-opacity:1" d="M0.8 -16.45L0.4 -16.25L0 -16.55L0.3 -17L0.8 -16.85L0.8 -16.45M12.2 -4.75L12.05 -4.05L11.8 -3.3L11.45 -2.6L10.95 -2.1L10.3 -1.55L9.7 -1.35L9.1 -1L8.55 -0.75L7.75 -0.7L6.15 -0.7L5.65 -1.05L4.95 -1.1L3.95 -1.35L3.15 -1.7L2.65 -2.1L2.15 -2.3L1.85 -2.85L1.6 -3.4L1.6 -4.15L1.85 -4.85L2.05 -5.3L2.4 -5.8L2.85 -5.9L3.05 -5.45L2.85 -4.9L2.8 -4.3L2.8 -3.55L3.15 -3L3.8 -2.75L4.5 -2.5L5.15 -2.25L6.15 -2.15L6.8 -1.85L7.65 -2.05L8.3 -2.25L8.8 -2.55L9.5 -3L10 -3.4L10.4 -3.8L10.45 -4.5L10.45 -5.3L10.2 -5.95L9.65 -6.6L8.95 -6.85L8.1 -7.3L7.75 -7.6L6.85 -8.05L6.2 -8.45L5.45 -8.75L5 -9L4.35 -9.2L3.9 -9.25L3.25 -9.6L2.7 -9.95L2.35 -10.55L2 -11.05L1.75 -11.75L1.7 -12.5L1.9 -13.2L1.95 -13.85L2.25 -14.55L2.65 -15.15L3.05 -15.75L3.15 -16.05L3.5 -16.5L4 -16.5L4.15 -17L4.7 -17.15L5.25 -17.45L5.95 -17.5L6.7 -17.65L7.65 -17.95L8.55 -18.15L9.25 -18.15L9.95 -17.95L10.5 -17.65L11.1 -17.15L11.45 -16.9L11.9 -16.35L12.05 -16L12.05 -15.25L11.65 -14.7L11.3 -14.35L10.7 -14.1L9.65 -14L8.85 -14.1L8.1 -14.15L7.35 -14L6.6 -13.65L6.1 -13.25L5.65 -12.75L5.45 -12.05L5.75 -11.5L6.2 -11.05L6.85 -10.9L7.35 -10.55L7.8 -10.15L8.3 -9.75L8.8 -9.25L9.25 -9.15L9.65 -8.9L10 -8.45L10.5 -8.25L10.95 -8L11.45 -7.55L11.85 -7.05L11.9 -6.3L12.05 -5.5L12.2 -4.75" />
</g>
<g id="PathID_4" transform="matrix(2.35887, 0.0495935, -0.128858, 1.39351, 299.55, 227.7)" opacity="1">
<path style="fill:#3399CC;fill-opacity:1" d="M7.25 -31.45L7.05 -30.95L7.05 -30.35L7 -29.45L6.8 -28.6L6.6 -27.5L6.8 -26.6L6.6 -25.85L6.5 -24.85L6.3 -22.5L6.1 -21.75L6.05 -20.95L6.1 -19.8L5.65 -18.95L5.5 -17.85L5.25 -16.6L5.05 -15.25L4.85 -14.35L4.55 -13.65L4.6 -13.1L4.6 -12.4L4.35 -11.75L4.25 -10.9L4.2 -10.2L4.05 -9.2L4.05 -8.4L3.8 -7.45L3.8 -5.2L3.85 -4.5L3.85 -3.8L3.95 -3.05L4.25 -2.5L4.9 -1.9L5.25 -1.4L6.1 -0.65L6 -0.25L5.45 -0.25L4.85 -0.5L4.15 -1.05L3.45 -2L3 -2.85L2.95 -3.65L2.9 -4.65L2.9 -5.45L2.75 -6.3L2.65 -7.2L2.65 -8.15L2.9 -9.15L2.95 -10.1L3.1 -10.8L3.3 -11.6L3.15 -12.4L3.3 -13.35L3.3 -14.35L3.45 -15.1L3.3 -15.95L3.2 -16.95L3.3 -18.2L3.05 -19.65L3 -21.05L3.05 -22.2L2.95 -24.8L3 -25.9L2.95 -26.95L2.65 -27.95L2.4 -28.95L2.2 -30.05L1.8 -30.75L1.4 -31.45L1.15 -32.2L1.15 -33.1L1.6 -33.7L2.3 -34.05L3.05 -34.35L3.7 -34.35L4.35 -34.3L5.05 -33.95L5.75 -33.3L6.3 -32.9L6.8 -32.4L7.25 -31.45M8.5 -10.1L8.1 -9.85L7.7 -10.05L7.95 -10.6L8.4 -10.5L8.5 -10.1" />
</g>
<g id="PathID_5" transform="matrix(2.35887, 0.0495935, -0.128858, 1.39351, 321.05, 228.15)" opacity="1">
<path style="fill:#3399CC;fill-opacity:1" d="M13.75 -6.6L13.45 -6.4L13.2 -6.5L13.2 -6.8L13.65 -7L13.75 -6.6M13.95 -2.15L13.85 -1.8L13.5 -1.45L13.15 -1.45L12.75 -1.85L12.55 -2.5L12.2 -3.05L12 -3.75L11.8 -4L11.5 -3.8L11.05 -3.55L10.6 -3L9.9 -2.55L9.45 -2.1L8.65 -1.7L7.8 -1.4L7.05 -1.15L6.35 -0.95L5.85 -0.75L5.35 -0.9L4.6 -1L3.75 -1.35L3 -1.8L2.5 -2.4L2.2 -3.1L2.15 -4.15L2.15 -4.9L2.25 -5.7L2.75 -6.5L3.2 -7.3L3.8 -7.85L4.45 -8.3L5.35 -8.45L6.1 -8.55L7 -8.75L7.75 -9.25L8.7 -9.75L9.2 -9.95L9.7 -10.1L9.9 -10.6L9.5 -11.3L9 -11.95L8 -12.9L7 -13.2L6.15 -13.25L5.85 -13.2L5.35 -13.2L4.7 -12.9L4.15 -12.55L3.5 -12.45L2.75 -12.45L1.85 -12.25L1.1 -12.25L0.45 -12.55L0.05 -13L0 -13.65L0.15 -14.2L0.65 -14.8L1.2 -15.55L1.9 -16.1L2.65 -16.5L3.45 -17.15L4.25 -17.5L5.65 -17.8L6.9 -17.9L7.75 -17.65L8.5 -17.25L9.25 -17L10.15 -16.45L10.6 -16L11.05 -15.25L11.35 -14.35L11.6 -13.45L11.95 -12.25L12.3 -11.35L12.35 -10.55L12.3 -9.6L12.55 -8.45L12.7 -7.3L13.15 -5.25L13.4 -4.45L13.65 -3.75L13.85 -2.9L13.95 -2.15M11.8 -2.3L11.55 -2.15L11.15 -2.3L11.25 -2.6L11.55 -2.75L11.8 -2.3M10.45 -7.5L10.25 -7.8L9.5 -8L8.9 -7.95L8.35 -7.7L7.7 -7.5L7.05 -7.15L6.45 -7.05L5.9 -6.75L5.4 -6.4L5.1 -5.95L4.75 -5.4L4.65 -4.9L4.45 -4.4L4.45 -3.8L4.7 -3.3L5.35 -3.1L6.1 -3.1L6.9 -3.3L7.25 -3.7L7.75 -3.8L8.95 -4.6L9.5 -5L9.9 -5.65L10.35 -6.15L10.4 -6.85L10.45 -7.5" />
</g>
<g id="PathID_6" transform="matrix(2.35887, 0.0495935, -0.128858, 1.39351, 357.7, 228.9)" opacity="1">
<path style="fill:#3399CC;fill-opacity:1" d="M15 -11.3L14.85 -9.45L14.6 -8.95L14.15 -7.7L13.2 -6.7L13.05 -5.95L13.2 -4.7L12.05 -3.7L10.9 -3.45L9.65 -3.1L8.95 -2.55L8.25 -1.9L7.65 -1.65L7.05 -1.55L6.6 -1.65L6.5 -2.05L6.7 -2.4L7.2 -2.85L7.65 -3.45L8.4 -3.95L8.85 -4.6L9.45 -5.15L10.1 -5.95L10.85 -6.65L11.45 -7.5L11.9 -8.25L12.45 -9.25L12.65 -9.9L12.7 -10.75L12.65 -11.5L12.2 -12.2L11.55 -12.75L11 -13L10.1 -13.25L9.35 -13.4L8.65 -13.55L8 -13.45L7.05 -13.4L6.2 -13.25L5.8 -12.55L5.3 -12L5.15 -11.3L5.05 -10.15L4.9 -9.2L4.85 -8.3L4.65 -7.25L4.6 -6.5L4.55 -5.45L4.45 -4.7L4.35 -3.75L4.35 -2.95L4.35 -1.3L4.2 -0.6L4.35 0L4.35 0.8L4.2 1.3L3.9 1.65L3.6 1.55L3.45 1.4L3.3 0.85L3.2 0.05L3.2 -2.1L3.15 -3.05L3.3 -4.15L3.3 -6.3L3.2 -7.35L3.4 -10.05L3.1 -10.75L2.35 -11L1.95 -11.25L1.45 -11.75L1.2 -12.3L1.25 -13L1.55 -13.65L2 -14.1L2.25 -14.85L3.15 -16L3.2 -16.9L3.1 -18.2L3 -19.45L2.95 -20.45L2.95 -21.4L2.75 -22.55L2.7 -23.5L2.55 -24.55L2.5 -25.6L2.4 -26.65L2.4 -27.15L2.5 -28L2.5 -28.75L2.3 -29.5L2.25 -30.2L1.95 -30.9L1.95 -31.5L2.25 -32L2.7 -32.5L3.4 -32.8L4.15 -32.85L5 -32.6L5.7 -32.25L6.55 -32L7.15 -31.6L7.25 -30.8L7.2 -29.85L7.5 -29.1L7.75 -28.15L7.8 -27.4L7.55 -26.1L7.05 -25.3L6.6 -24.7L6.25 -24L6.25 -23L5.65 -21.4L5.6 -20.15L5.5 -18.9L5.4 -17.85L5.4 -17L5.65 -16.5L6.2 -16.35L7.7 -16.25L8.7 -16.1L9.45 -16.05L10.3 -15.75L11.15 -15.55L12 -15.3L12.8 -14.85L13.7 -14.1L14.3 -13.45L14.8 -12.45L15 -11.3M5.3 -1.8L5.05 -1.4L4.8 -1.4L4.8 -1.8L5.05 -2.1L5.3 -1.8" />
</g>
<g id="PathID_7" transform="matrix(0.823034, -0.000517494, 0.0148104, 0.419363, 297.2, 252.55)" opacity="1">
<path style="fill:#3BB677;fill-opacity:1" d="M3.4 0L3.4 -36.65L7.9 -36.65L7.9 -23.45Q11 -27.15 15.8 -27.15Q18.75 -27.15 20.9 -25.95Q23.05 -24.8 24 -22.75Q24.95 -20.7 24.95 -16.8L24.95 0L20.45 0L20.45 -16.8Q20.45 -20.15 18.95 -21.7Q17.5 -23.25 14.85 -23.25Q12.85 -23.25 11.1 -22.2Q9.35 -21.15 8.6 -19.35Q7.9 -17.6 7.9 -14.5L7.9 0L3.4 0" />
</g>
<g id="PathID_8" transform="matrix(0.823034, -0.000517494, 0.0148104, 0.419363, 320.65, 252.5)" opacity="1">
<path style="fill:#3BB677;fill-opacity:1" d="M20.8 0L20.8 -3.9Q17.7 0.6 12.35 0.6Q10 0.6 7.95 -0.3Q5.95 -1.2 4.95 -2.55Q3.95 -3.9 3.55 -5.9Q3.3 -7.2 3.3 -10.1L3.3 -26.55L7.8 -26.55L7.8 -11.8Q7.8 -8.3 8.05 -7.05Q8.45 -5.3 9.8 -4.3Q11.2 -3.3 13.25 -3.3Q15.25 -3.3 17 -4.3Q18.8 -5.35 19.55 -7.1Q20.3 -8.9 20.3 -12.3L20.3 -26.55L24.8 -26.55L24.8 0L20.8 0" />
</g>
<g id="PathID_9" transform="matrix(0.823034, -0.000517494, 0.0148104, 0.419363, 344.05, 252.5)" opacity="1">
<path style="fill:#3BB677;fill-opacity:1" d="M1.6 -7.95L6.05 -8.65Q6.4 -5.95 8.1 -4.5Q9.8 -3.1 12.9 -3.1Q16 -3.1 17.5 -4.35Q19 -5.6 19 -7.3Q19 -8.85 17.65 -9.7Q16.75 -10.3 13.1 -11.25Q8.15 -12.5 6.2 -13.4Q4.3 -14.3 3.3 -15.9Q2.35 -17.55 2.35 -19.5Q2.35 -21.25 3.15 -22.75Q3.95 -24.3 5.35 -25.3Q6.4 -26.05 8.2 -26.6Q10.05 -27.15 12.1 -27.15Q15.25 -27.15 17.6 -26.25Q19.95 -25.35 21.05 -23.8Q22.2 -22.25 22.65 -19.7L18.25 -19.1Q17.95 -21.15 16.5 -22.3Q15.05 -23.45 12.45 -23.45Q9.35 -23.45 8 -22.4Q6.7 -21.4 6.7 -20Q6.7 -19.15 7.25 -18.45Q7.8 -17.7 8.95 -17.25L12.95 -16.1Q17.7 -14.8 19.6 -14Q21.5 -13.2 22.55 -11.65Q23.65 -10.1 23.65 -7.8Q23.65 -5.55 22.3 -3.55Q21 -1.55 18.5 -0.45Q16.05 0.6 12.95 0.6Q7.75 0.6 5.05 -1.55Q2.35 -3.7 1.6 -7.95" />
</g>
<g id="PathID_10" transform="matrix(0.823034, -0.000517494, 0.0148104, 0.419363, 365.15, 252.5)" opacity="1">
<path style="fill:#3BB677;fill-opacity:1" d="M13.2 -4L13.8 -0.05Q11.9 0.35 10.4 0.35Q7.95 0.35 6.6 -0.4Q5.25 -1.2 4.7 -2.45Q4.15 -3.7 4.15 -7.75L4.15 -23.05L0.8 -23.05L0.8 -26.55L4.15 -26.55L4.15 -33.1L8.65 -35.8L8.65 -26.55L13.2 -26.55L13.2 -23.05L8.65 -23.05L8.65 -7.5Q8.65 -5.6 8.85 -5.05Q9.1 -4.5 9.65 -4.15Q10.2 -3.85 11.2 -3.85Q11.95 -3.85 13.2 -4" />
</g>
<g id="PathID_11" transform="matrix(0.324793, -0.00698288, 0.00779154, 0.34772, 395, 222.15)" opacity="1">
<path style="fill:#005CAA;fill-opacity:1" d="M118 27.4L118 27.3Q128.1 35.55 138.9 51.45Q150.45 68.6 150 76.8Q149.85 86.1 144.75 90.95Q139.95 95.9 128.1 98.15Q118 100.1 104.2 96.65Q99.25 95.3 92.1 92.75Q87.05 90.95 80.95 88.4L80.95 88.5Q64.15 81.5 20.1 57.2L14.7 53.55L14.55 53.4L13.2 52.05L12.6 51L12.35 47.4L11.9 46.65L11.6 42.9L11.6 42.6L11.7 41.65Q15.35 33.4 21.8 27.15Q20.45 26.7 19.25 25.9Q14.55 23.25 13.2 17.05Q11.7 10.6 6.3 6.35L2 3.8L1.2 3.25Q-0.3 2.65 0.05 1.15Q0.3 -0.35 2 0.1L2.15 0.1L8.25 3.7Q14.55 8.5 16.55 16.35Q17.55 21.3 20.75 23.05Q22.7 24.3 24.95 23.95Q30.35 19.15 37.7 15.4Q45.2 11.5 51.65 10L52.4 9.8L53.2 9.7L54.25 9.25L54.7 9.25L60.25 9.25L64.85 8.75Q76.7 8.95 90.95 12.7Q91.3 12.7 91.6 13L92.1 13.15L94.9 14.05L95.2 14.05Q106.75 18.1 118 27.4M86.35 15.4Q74.75 12.9 65.05 12.7L59.45 13L55.15 13L54.95 13L54.25 13Q53.35 12.9 48.95 14.85Q47.15 15.4 45.2 16.35Q44.45 16.45 44.15 16.7Q60.1 17.05 66.35 20.05Q71.3 22.9 68.5 25.8Q65.5 28.9 45.2 28.9L30.45 28.2L27.45 27.85Q23.55 31.3 21 34.05L21 34.2Q18.35 37.65 15.6 42.9L15.8 44.65L15.95 44.65L23.75 46.05Q34.35 48.3 44 52.8Q45.65 49.15 51.05 45.25Q60.25 38.8 86.2 15.55L86.35 15.4M115.2 94.95Q111.9 94.4 109 93.35Q104.5 91.95 96.55 87.95Q95.55 87.5 92.1 85.25L74.5 74Q55.4 61.95 45.85 57.2L45.5 57.45L44.35 57.2Q34.35 52.35 23.15 49.95L16.55 48.9L16.55 49.95L17.1 50.4Q18.95 52.05 22.05 54Q65.65 78.15 82.45 84.95Q87.7 87.2 92.1 88.85Q99.7 91.7 105.1 93Q110.4 94.4 115.2 94.95" />
</g>
<g id="PathID_12" transform="matrix(3.07919, 0.14934, -0.368141, 2.89348, 148.15, 238.9)" opacity="1">
<path style="fill:#E12329;fill-opacity:1" d="M3.6 -27.7L3.15 -27.45L2.75 -27.55L2.85 -28L3.2 -28.15L3.6 -27.7M6.1 -26.75L5.95 -26.35L5.55 -25.9L5.2 -25.4L5.2 -24.9L5.45 -24.45L5.7 -24.1L5.7 -23.4L5.45 -22.75L5.05 -22.25L4.5 -21.85L3.85 -21.8L3.15 -21.85L2.7 -22.1L2.2 -22.45L1.75 -23L1.2 -23.7L0.95 -24.35L0.85 -24.85L0.95 -25.35L1.2 -25.9L1.55 -26.3L2.25 -26.7L2.9 -26.8L3.8 -26.95L4.7 -27.2L5.35 -27.25L5.8 -27.2L6.1 -26.75M6.4 -15.85L6.2 -15.6L5.7 -15.3L5.35 -15L5.2 -14.4L5.1 -13.6L4.8 -12.75L5 -12.05L4.75 -11.45L4.7 -10.6L4.65 -9.75L4.65 -8.85L4.7 -7.8L4.65 -7L4.65 -6.1L4.75 -5.45L5 -4.8L4.75 -4L5.05 -3.35L5.05 -2.15L5.1 -1.7L5.3 -1.05L5.35 -0.3L5.55 0.2L5.55 0.65L5.75 1.1L5.5 1.55L5.15 1.65L4.95 1.55L4.75 1.05L4.6 0.45L4.45 0L4.2 -0.5L4.2 -0.95L3.85 -1.75L3.85 -2.45L3.75 -2.95L3.75 -3.65L3.6 -4.3L3.5 -5.8L3.4 -6.25L3.35 -7.2L3.4 -7.85L3.35 -8.6L3.35 -9.2L3.1 -9.7L2.65 -9.95L2.35 -10.3L2.05 -11.25L2 -11.8L2 -13.8L2.1 -14.7L1.95 -15.6L1.9 -16.2L1.7 -16.8L1.9 -17.4L2.2 -17.9L2.6 -18.05L3.15 -18.2L3.8 -18L4.25 -17.6L4.7 -17.25L5.3 -17.25L5.7 -16.8L6.05 -16.55L6.4 -16.3L6.4 -15.85" />
</g>
<g id="PathID_13" transform="matrix(-0.168282, 0.00154346, 0.0016292, 0.177628, 296.75, 231.35)" opacity="1">
<path style="fill:#002A5C;fill-opacity:1" d="M120.2 13.85Q131.1 22.4 138.3 34.2Q145.9 46.4 148.7 61.15Q151.6 77.3 148.1 93.5Q144.85 108.4 134.75 121.7Q124.45 135.1 110.4 142.35Q93.05 151.25 75.15 151.55Q58.15 151.65 42 143.95Q31.7 139.15 23.5 130.55Q15.8 122.6 9.25 110.6Q4.5 102 1.7 93.05L0 85.85L2.6 93.05Q6.1 101.6 10.2 108.1Q16.85 118.65 25.05 126.5Q33.85 135.1 43.55 139.6Q58.95 146.95 74.95 146.75Q92.1 146.65 108.6 138.1Q121.65 131.5 131.15 118.7Q140.5 106.5 143.5 92.45Q146.65 77.85 143.3 62.1Q140.35 49 133.75 37.9Q126.95 26.65 116.45 18.2Q102.25 6.6 86.7 5.25Q72.75 3.5 57.5 9.6Q39.75 16.65 27.55 32.15Q12.45 51.15 15.05 74.1Q16.3 85.65 20.9 93.9L20.9 94.25Q16.1 87.4 13.9 75.85Q9.45 52.85 24.05 31.65Q36.25 13.85 56.75 5.5Q74.35 -1.7 89.5 0.55Q105.8 2.6 120.2 13.85M98.8 48.25Q102.05 49 104.3 53.05Q106.7 57.1 105.6 61.05Q105 63.05 103.95 64.3Q107.1 65.75 107.8 69.5Q103.05 70.85 101 75.75Q99.65 79.55 101 83.25Q102.5 86.95 105.95 88.25Q108.75 89.45 111.65 88.6Q114.45 87.65 116.35 85.2Q121.45 87.45 122.4 91.65Q123.35 96.7 121.85 101L120.2 104.3L120.8 107.1Q121.15 110.9 119.35 114.8Q117.4 118.7 114.25 119.75L111.2 119.95Q110.6 119.75 110.4 119.1Q110.2 118.45 110.4 117.8Q110.6 117.1 111.35 116.9L112.4 116.8L113.35 117.75Q113.55 118.35 113.2 118.9L113.15 119.1Q114.25 119 115.2 118.15Q119.85 111.6 114.65 104.8Q110 98.8 102.9 97.25Q97.25 96.2 91.2 97.8Q86.05 99.1 82.1 101.9Q79.5 103.9 73.8 106.6Q71.75 107.6 68.6 108.5L64.25 109.5Q46.6 111.7 34.1 101.9Q25.4 95.2 20.8 84.25Q19.85 81.95 19.25 78.75Q18.3 74.9 18.4 71.7Q18.5 64.7 20.55 58.25L20.6 57.85Q21.5 56.55 22.8 56.6Q24.1 56.8 24.1 58.05Q21.1 67.1 22.05 75.45Q22.55 79.85 25.8 86.3Q30.55 95.4 37.95 100.5Q44.6 105.55 55.35 106.7Q69.35 108.3 81 98.1Q92.85 87.6 94.65 70.85Q96.2 56.15 88.6 50.85Q86 49 83.1 49Q80.5 49 79.9 50.45Q79.2 52.35 80.1 53.05Q79.9 52.65 80.25 52.25Q80.4 51.6 81 51.35L82.15 51.2Q82.7 51.4 83 52.15Q83.2 52.75 83 53.45Q82.7 54.2 81.8 54.35L81.8 54.4L81.4 54.4Q78.4 54.4 78.85 51.05Q79.35 47.35 84.4 45.45Q89.1 43.7 93.05 45.85Q95.05 46.8 96.15 48.25L98.8 48.25M70.8 28.2Q73.8 29.05 74.3 30.8Q75.5 34.4 73.3 35.8Q71.95 36.6 70.5 36.3Q69 35.9 68.2 34.75Q66.95 32.9 67.95 30.9Q57.7 34.2 58.6 41.95Q58.95 44.95 67.3 57.1Q74.55 67.65 73 75.1Q71.45 81.85 65.55 85.65Q59.7 89.35 52.9 87.45Q46.15 85.8 42 79.85Q36.8 72.5 36.25 64.5Q35.55 54 42.85 43.7Q52.2 30.2 63.4 27.9L70.8 28.2" />
</g>
</svg>
